<?xml version="1.0" encoding="UTF-8"?>
<svg xmlns="http://www.w3.org/2000/svg" xmlns:xlink="http://www.w3.org/1999/xlink" width="24px" height="24px" viewBox="0 0 24 24" version="1.1">
<g id="surface1">
<path style=" stroke:none;fill-rule:nonzero;fill:rgb(0%,0%,0%);fill-opacity:1;" d="M 21.945312 10.148438 L 21.945312 11.484375 L 2.953125 11.484375 L 2.953125 10.148438 L 21.945312 10.148438 M 22.875 9.222656 L 2.023438 9.222656 L 2.023438 12.410156 L 22.875 12.410156 Z M 22.875 9.222656 "/>
<path style=" stroke:none;fill-rule:nonzero;fill:rgb(0%,0%,0%);fill-opacity:1;" d="M 10.21875 9.28125 L 7.414062 9.28125 L 5.429688 12.351562 L 8.234375 12.351562 Z M 10.21875 9.28125 "/>
<path style=" stroke:none;fill-rule:nonzero;fill:rgb(0%,0%,0%);fill-opacity:1;" d="M 14.816406 9.28125 L 12.011719 9.28125 L 10.03125 12.351562 L 12.835938 12.351562 Z M 14.816406 9.28125 "/>
<path style=" stroke:none;fill-rule:nonzero;fill:rgb(0%,0%,0%);fill-opacity:1;" d="M 19.464844 9.28125 L 16.660156 9.28125 L 14.675781 12.351562 L 17.484375 12.351562 Z M 19.464844 9.28125 "/>
<path style=" stroke:none;fill-rule:nonzero;fill:rgb(0%,0%,0%);fill-opacity:1;" d="M 22.746094 9.28125 L 21.355469 9.28125 L 19.371094 12.351562 L 22.714844 12.351562 Z M 22.746094 9.28125 "/>
<path style=" stroke:none;fill-rule:nonzero;fill:rgb(0%,0%,0%);fill-opacity:1;" d="M 5.566406 9.28125 L 2.882812 9.28125 L 2.855469 12.351562 L 3.578125 12.351562 Z M 5.566406 9.28125 "/>
<path style=" stroke:none;fill-rule:nonzero;fill:rgb(0%,0%,0%);fill-opacity:1;" d="M 20.4375 1.285156 L 20.820312 2.566406 L 2.640625 8.066406 L 2.253906 6.789062 L 20.4375 1.285156 M 21.054688 0.132812 L 1.101562 6.171875 L 2.023438 9.222656 L 21.980469 3.183594 Z M 21.054688 0.132812 "/>
<path style=" stroke:none;fill-rule:nonzero;fill:rgb(0%,0%,0%);fill-opacity:1;" d="M 8.960938 3.855469 L 6.277344 4.667969 L 5.265625 8.179688 L 7.949219 7.363281 Z M 8.960938 3.855469 "/>
<path style=" stroke:none;fill-rule:nonzero;fill:rgb(0%,0%,0%);fill-opacity:1;" d="M 13.363281 2.523438 L 10.679688 3.335938 L 9.667969 6.847656 L 12.351562 6.035156 Z M 13.363281 2.523438 "/>
<path style=" stroke:none;fill-rule:nonzero;fill:rgb(0%,0%,0%);fill-opacity:1;" d="M 17.8125 1.175781 L 15.128906 1.988281 L 14.117188 5.5 L 16.800781 4.6875 Z M 17.8125 1.175781 "/>
<path style=" stroke:none;fill-rule:nonzero;fill:rgb(0%,0%,0%);fill-opacity:1;" d="M 20.949219 0.226562 L 19.617188 0.628906 L 18.609375 4.140625 L 21.8125 3.167969 Z M 20.949219 0.226562 "/>
<path style=" stroke:none;fill-rule:nonzero;fill:rgb(0%,0%,0%);fill-opacity:1;" d="M 4.507812 5.203125 L 1.9375 5.980469 L 2.800781 8.925781 L 3.5 8.714844 Z M 4.507812 5.203125 "/>
<path style=" stroke:none;fill-rule:nonzero;fill:rgb(0%,0%,0%);fill-opacity:1;" d="M 2.023438 11.988281 L 2.023438 23.316406 C 2.023438 23.617188 2.265625 23.859375 2.566406 23.859375 L 22.332031 23.859375 C 22.632812 23.859375 22.875 23.617188 22.875 23.316406 L 22.875 11.988281 Z M 15.308594 17.851562 L 11.15625 20.25 C 10.941406 20.375 10.671875 20.21875 10.671875 19.972656 L 10.671875 15.175781 C 10.671875 14.929688 10.941406 14.773438 11.15625 14.898438 L 15.308594 17.296875 C 15.519531 17.417969 15.519531 17.726562 15.308594 17.851562 Z M 15.308594 17.851562 "/>
</g>
</svg>
