<?xml version="1.0" encoding="UTF-8"?>
<svg xmlns="http://www.w3.org/2000/svg" xmlns:xlink="http://www.w3.org/1999/xlink" width="50px" height="50px" viewBox="0 0 50 50" version="1.1">
<g id="surface1">
<path style=" stroke:none;fill-rule:nonzero;fill:rgb(0%,0%,0%);fill-opacity:1;" d="M 45.71875 21.144531 L 45.71875 23.925781 L 6.148438 23.925781 L 6.148438 21.144531 L 45.71875 21.144531 M 47.652344 19.214844 L 4.21875 19.214844 L 4.21875 25.855469 L 47.652344 25.855469 Z M 47.652344 19.214844 "/>
<path style=" stroke:none;fill-rule:nonzero;fill:rgb(0%,0%,0%);fill-opacity:1;" d="M 21.292969 19.339844 L 15.449219 19.339844 L 11.3125 25.730469 L 17.15625 25.730469 Z M 21.292969 19.339844 "/>
<path style=" stroke:none;fill-rule:nonzero;fill:rgb(0%,0%,0%);fill-opacity:1;" d="M 30.871094 19.339844 L 25.027344 19.339844 L 20.894531 25.730469 L 26.738281 25.730469 Z M 30.871094 19.339844 "/>
<path style=" stroke:none;fill-rule:nonzero;fill:rgb(0%,0%,0%);fill-opacity:1;" d="M 40.554688 19.339844 L 34.707031 19.339844 L 30.574219 25.730469 L 36.421875 25.730469 Z M 40.554688 19.339844 "/>
<path style=" stroke:none;fill-rule:nonzero;fill:rgb(0%,0%,0%);fill-opacity:1;" d="M 47.386719 19.339844 L 44.488281 19.339844 L 40.355469 25.730469 L 47.324219 25.730469 Z M 47.386719 19.339844 "/>
<path style=" stroke:none;fill-rule:nonzero;fill:rgb(0%,0%,0%);fill-opacity:1;" d="M 11.597656 19.339844 L 6.003906 19.339844 L 5.945312 25.730469 L 7.457031 25.730469 Z M 11.597656 19.339844 "/>
<path style=" stroke:none;fill-rule:nonzero;fill:rgb(0%,0%,0%);fill-opacity:1;" d="M 42.574219 2.679688 L 43.378906 5.34375 L 5.503906 16.808594 L 4.699219 14.144531 L 42.574219 2.679688 M 43.863281 0.273438 L 2.292969 12.859375 L 4.21875 19.214844 L 45.789062 6.632812 Z M 43.863281 0.273438 "/>
<path style=" stroke:none;fill-rule:nonzero;fill:rgb(0%,0%,0%);fill-opacity:1;" d="M 18.671875 8.03125 L 13.078125 9.726562 L 10.972656 17.042969 L 16.5625 15.34375 Z M 18.671875 8.03125 "/>
<path style=" stroke:none;fill-rule:nonzero;fill:rgb(0%,0%,0%);fill-opacity:1;" d="M 27.84375 5.257812 L 22.25 6.949219 L 20.140625 14.265625 L 25.734375 12.570312 Z M 27.84375 5.257812 "/>
<path style=" stroke:none;fill-rule:nonzero;fill:rgb(0%,0%,0%);fill-opacity:1;" d="M 37.105469 2.449219 L 31.515625 4.144531 L 29.410156 11.460938 L 35.003906 9.765625 Z M 37.105469 2.449219 "/>
<path style=" stroke:none;fill-rule:nonzero;fill:rgb(0%,0%,0%);fill-opacity:1;" d="M 43.644531 0.472656 L 40.871094 1.3125 L 38.769531 8.628906 L 45.441406 6.601562 Z M 43.644531 0.472656 "/>
<path style=" stroke:none;fill-rule:nonzero;fill:rgb(0%,0%,0%);fill-opacity:1;" d="M 9.390625 10.839844 L 4.039062 12.457031 L 5.835938 18.59375 L 7.289062 18.15625 Z M 9.390625 10.839844 "/>
<path style=" stroke:none;fill-rule:nonzero;fill:rgb(0%,0%,0%);fill-opacity:1;" d="M 4.21875 24.972656 L 4.21875 48.578125 C 4.21875 49.199219 4.722656 49.703125 5.34375 49.703125 L 46.527344 49.703125 C 47.148438 49.703125 47.652344 49.199219 47.652344 48.578125 L 47.652344 24.972656 Z M 31.890625 37.191406 L 23.238281 42.1875 C 22.792969 42.445312 22.234375 42.121094 22.234375 41.609375 L 22.234375 31.613281 C 22.234375 31.101562 22.792969 30.78125 23.238281 31.035156 L 31.890625 36.035156 C 32.335938 36.289062 32.335938 36.933594 31.890625 37.191406 Z M 31.890625 37.191406 "/>
</g>
</svg>
